<?xml version="1.0" encoding="iso-8859-1"?>
<!-- Generator: Adobe Illustrator 19.0.0, SVG Export Plug-In . SVG Version: 6.00 Build 0)  -->
<svg version="1.1" id="Capa_1" xmlns="http://www.w3.org/2000/svg" xmlns:xlink="http://www.w3.org/1999/xlink" x="0px" y="0px"
	 viewBox="0 0 511.424 511.424" style="enable-background:new 0 0 511.424 511.424;" xml:space="preserve">
<g>
	<path style="fill:#607D8B;" d="M186.641,202.176c2.368,6.24,8.32,10.368,14.976,10.368h108.16c6.656,0,12.64-4.128,14.976-10.368
		l57.6-153.28c2.816-7.488-0.352-15.936-7.36-19.712c-72.32-38.912-166.24-38.912-238.56,0c-7.04,3.808-10.208,12.224-7.392,19.712
		L186.641,202.176z"/>
	<path style="fill:#607D8B;" d="M191.505,229.856c-3.328-5.792-9.952-8.96-16.544-7.808l-161.28,27.2
		c-7.936,1.344-13.632,8.32-13.344,16.352c2.976,84.256,47.392,161.248,118.848,205.984c2.656,1.632,5.6,2.4,8.512,2.4
		c4.64,0,9.216-1.984,12.352-5.824l104-126.08c4.224-5.152,4.832-12.384,1.536-18.144L191.505,229.856z"/>
	<path style="fill:#607D8B;" d="M497.713,249.248l-161.28-27.2c-6.56-1.152-13.184,1.984-16.544,7.808l-54.08,94.048
		c-3.328,5.792-2.688,12.992,1.536,18.144l104,126.08c3.136,3.808,7.712,5.824,12.352,5.824c2.944,0,5.888-0.768,8.512-2.432
		c71.392-44.672,115.84-121.696,118.88-205.952C511.345,257.568,505.649,250.592,497.713,249.248z"/>
</g>
<circle style="fill:#455A64;" cx="255.697" cy="255.424" r="96"/>
<g>
	<path style="fill:#607D8B;" d="M486.097,205.504c-7.04,0-13.472-4.672-15.424-11.744c-9.6-34.912-28.256-67.264-53.952-93.536
		c-6.176-6.336-6.048-16.448,0.256-22.624c6.368-6.144,16.512-6.048,22.624,0.256c29.472,30.144,50.88,67.296,61.952,107.424
		c2.336,8.544-2.688,17.344-11.2,19.68C488.913,205.312,487.505,205.504,486.097,205.504z"/>
	<path style="fill:#607D8B;" d="M25.297,205.504c-1.408,0-2.848-0.192-4.256-0.576c-8.512-2.336-13.504-11.136-11.168-19.68
		C20.913,145.12,42.321,108,71.761,77.824c6.176-6.304,16.288-6.4,22.624-0.256c6.304,6.176,6.432,16.288,0.256,22.624
		c-25.664,26.304-44.32,58.624-53.92,93.568C38.769,200.832,32.337,205.504,25.297,205.504z"/>
	<path style="fill:#607D8B;" d="M255.697,511.424c-21.152,0-42.08-2.656-62.24-7.872c-8.576-2.208-13.696-10.976-11.456-19.52
		c2.208-8.544,10.88-13.696,19.488-11.456c35.104,9.12,73.28,9.12,108.48,0c8.672-2.208,17.28,2.976,19.488,11.488
		s-2.944,17.28-11.488,19.488C297.777,508.768,276.817,511.424,255.697,511.424z"/>
	<path style="fill:#607D8B;" d="M415.377,197.504c-6.016,0-11.744-3.392-14.496-9.216c-4.672-10.016-9.248-17.92-14.336-24.768
		c-5.28-7.104-3.776-17.12,3.328-22.4c7.136-5.184,17.12-3.776,22.368,3.328c6.4,8.64,12,18.24,17.664,30.24
		c3.744,8,0.288,17.536-7.712,21.28C419.985,197.024,417.681,197.504,415.377,197.504z"/>
	<path style="fill:#607D8B;" d="M95.985,197.504c-2.272,0-4.576-0.48-6.752-1.504c-8-3.744-11.456-13.248-7.712-21.28
		c5.472-11.712,11.264-21.632,17.632-30.24c5.248-7.072,15.264-8.64,22.368-3.328c7.104,5.248,8.608,15.264,3.328,22.368
		c-5.088,6.88-9.792,14.976-14.336,24.768C107.793,194.08,102.033,197.504,95.985,197.504z"/>
	<path style="fill:#607D8B;" d="M255.697,447.424c-6.112,0-12.256-0.352-18.016-1.088c-8.768-1.12-14.976-9.152-13.856-17.92
		s9.12-14.976,17.92-13.856c8.928,1.12,19.008,1.12,27.936,0c8.864-1.152,16.8,5.088,17.92,13.856
		c1.12,8.736-5.088,16.768-13.856,17.92C267.953,447.072,261.809,447.424,255.697,447.424z"/>
</g>
<g>
</g>
<g>
</g>
<g>
</g>
<g>
</g>
<g>
</g>
<g>
</g>
<g>
</g>
<g>
</g>
<g>
</g>
<g>
</g>
<g>
</g>
<g>
</g>
<g>
</g>
<g>
</g>
<g>
</g>
</svg>
